<svg xmlns="http://www.w3.org/2000/svg" viewBox="0 0 106 106">
	<path fill="#313338" d="m61.7 51.4.4-1.3 22.4-19.7-.2-1.8 14.6-12.7-3.3-3.3-4.3 3.6C86.7 13.9 83 8.7 83 8.7l-1.9 1.7c3.5 4 5.2 7.5 6.1 9.5l-.9.7-6.1-3-3.4 2.8-1.6-1-11.5 9.5.2 2.2-.5.4-3.6-1.1-5.3 4.8-1.3-.8-1.2 1.2 2.6 3.1-28 23.2.4 6.5-2.7 4.5-3.1-.2L7.1 85l10.5 12.1 14.8-23.3 1.3-.5 8.7 24.1 10.8-9.1-6.4-13.9 7.1-6.7-3-5c2.8 2.7 18.2 16.9 38.8 15.6L91 63.1s-17.8 1.3-29.3-11.7m24.9-36.3c.2-.2.5-.2.8 0l1.6 1.2c.3.2.3.7 0 1l-.6.5c-.3.2-.7.2-.9-.2l-.9-1.7c-.3-.3-.2-.7 0-.8M45.5 71.6 44 68.2l4.2-2.1-.5-.9-2.7-.7.9-2 1.4-.3 2.9 4.9z" />
</svg>