<svg xmlns="http://www.w3.org/2000/svg" viewBox="0 0 106 106">
	<path fill="#313338" d="m97.3 9.6-3.1-3.1-3.6 2-36.2 31.7h-.8l-1.4-1.6 1.4-1.2 4.2-2 3.7-2.8-4.9-5.6-3.6 2.8-3.8 5.3-.4-.5-1.9 1.6.4.5-9.8 8.3-.5-.6-1.9 1.6.5.6-6.6 3.3-1.8 1.8 5.2 5.7 2.1-1.8 4-5.6 1.5 1.8-.5 1.6-1.1-.8-1.6 1.2.6.9-1.9 1.7 2.9 3.2-3.4 6.2-3.9.4-17 14 2.4 2.1-1.5 1.5-2.3-1.9-4.1 3.9 16.6 13.8 3.3-4.2-2.3-1.9 1.2-1.3 1.5 1.3L41 75.4l6 2.4 4-4-5.7-6-.4-2.8 3.3-4.3 2.3 2.4h6.3l3.7-3.2 1-5.7-3.2-3.6 22-19-3.1-4 16.9-14.1zM18.1 83.7l3 2.7-1.4 1.3-3.2-2.7zm6.2 7.9-2.4-2 1.3-1.3 2.3 2zm17.3-42-1-1.1 9.8-8.2 1.1 1.2zm17.3 5.6-.4 3.5-2.5 2.4-4.6.3-1.9-2.1.7-.9 1.3 1.4h3.4l.9-.8-2.8-.7-1.4-1.7.2-.3 4.6-4z" />
</svg>