<svg xmlns="http://www.w3.org/2000/svg" viewBox="0 0 106 106">
	<path fill="#313338" d="m98 16.8-2.9-3.4c-.4-.4-1.1-.5-1.5-.1L90.4 16c-.3.3-.5.7-.3 1.1l-6.4 5.6-5.4-5.7-2-1-4-3.9-.7.5-.5 1.1-1.7-2.1-1 .8 1.7 2.1-1.2.2-1.8 1.4.2 1.1-1.1.8-1.1-.4-1.7 1.3.2 1.2-.9.9-1.1-.4-1.7 1.4.2 1.2-1 .8-1.2-.4-1.6 1.3.2 1.3-1.1.8-1.3-.4-1.7 1.4v1.3l-2.8-3.5-1.8 1.5 3.7 4.5-.8 1.2 1.8 8.1L7.8 78l16 16.3H26l18.4-16 10.5-.5 9.5-5.5 5.2-7.1v-7.4l9-6.2 2.1 4.1 5.3-4.2v-6.9l-3.7-6.2 3.7-3.2 3.9 4.2 4.1-3.3-4.7-6.1h-4l.8-2.2 7.6-6.6c.3.1.7 0 1-.2l3.2-2.7c.4-.4.5-1.1.1-1.5M58.6 66.1l-6.2 4.5-6.6-7.3 10.6-9c1.5 1.9 4.6 4.9 4.6 4.9zm-.8-29.5-.6-2.3 14.4-12.1 3 .5zM74.4 50l-4.1-3.3-.8-3.3 5.5-4.6 4.4 6.2z" />
</svg>