<svg xmlns="http://www.w3.org/2000/svg" viewBox="0 0 106 106">
	<path fill="#313338" d="m76.8 32.6-.1-2.2 22.5-19.3-3.3-3.3-11.4 9.6-4.7-1.3-7.6 6.5-2.2-1-25.7 21.8-3.6-3.5.9-.7 6.5-3.9 2.7.2 1.2-1.1s-1.8-3.4-6.9-8l-1.2 1.3v2.1l-4.6 5.8-8.3 8-3.9 1.7-13.9 11.1-2.9.9s1 2.1 2.4 3.6c2 2 4 3.2 3.7 3l.8-2.6 13.1-11.7 2.5-3.1.2-.2 3.5 3.8-12.4 10.6 1.7 8.9-19 16.5L17 98.2l16.9-17 3.4 7.5 11.3-6.3-5-9.4 9.4-9.8-2.2-3.8 1.5.8 6.6 5.5 8.7-10.8c-7.7-4.6-9.6-8-9.6-8l5.2-2zm1.2-12 1.8.6-4.6 4-1-1.1zM17.5 89.1l-3.5-5 2.5-2.2 3.8 4.4zm8.1-4.2-4.4-7.3L29 71l3.5 7.3zm23.9-22.1-7.3 7.6-2.5-4.6 4.9-2.3-.3-2c-1.5.6-2.5-.1-3.2-.7l4.9-3.7.1.1z" />
</svg>