<svg xmlns="http://www.w3.org/2000/svg" viewBox="0 0 106 106">
	<path fill="#313338" d="m78.1 48.5-5.1-.1.1-1.7 6.2-5.1 1.4-3.2.9 1.1 19.2-13.1s-.9-3.1-3.7-7l.2-1.8c.2-1.2-.7-2.3-1.9-2.4l-1.9-.2c-1.7-1.7-3.7-3.4-6.2-5L70.9 26.6l1.3 1.5-1.5.5-5.5-2.6-4.9 4.1.8 4.4-4.7 3.8-4-4.6.1-.1 1.4.3 7.4-6.9.6.7 4.2-3.4-5.3-6.3-4.2 3.4.4.6-7.8 6v1.5l-12.4 8.6 5.4 6.2 5.7-6 3.4 4.7-1.6-.4-3.7 2.8 1 1.3-22.3 19-1.4-.5-3.5 2.8.2 1.3-8.8 5.2-2.2-.3-3.9 3.5s3.4 11.5 14.7 18.2l4.4-3.5.3-2.2 6-7.5.6-.5 1.3.4 3.2-2.8-.1-1.4 2.9-2.5 11.1 11.6 7.1-6.2-10-12.6 9.5-8.2 8.3.2.2.3-2.1 2.1 5.1 6.8 1.8-1.7 5.8 9 6.5-6.1-4.2-10.8 5.2-5.7zm-1.4 2.6 2.5 3.6-3.2 3.4-2-2.5 2.5-1.9-.6-.7-3.1-.1.1-1.9zM63.2 31.2l2.4-2 1.4.7-.3.1-3.3 2.6z" />
</svg>